<?xml version="1.0" encoding="UTF-8"?>
<svg id="Livello_1" data-name="Livello 1" xmlns="http://www.w3.org/2000/svg" viewBox="0 0 229.91 229.91">
  <defs>
    <style>
      .cls-1 {
        fill: #000;
        stroke-width: 0px;
      }
    </style>
  </defs>
  <path class="cls-1" d="M229.91,112.18c0-6.9-1.32-13.46-3.9-19.5-2.47-5.98-6.02-11.23-10.84-16.05-5.95-5.95-13.17-10.36-20.9-12.75-4.69-1.46-9.69-2.19-14.85-2.19h-11.2s0-11.2,0-11.2c0-5.16-.74-10.16-2.19-14.85-2.39-7.72-6.8-14.95-12.75-20.9-4.82-4.82-10.07-8.36-16.04-10.83C131.18,1.32,124.62,0,117.73,0c-13.12,0-24.43,4.27-33.64,12.69C74.72,4.27,63.42,0,50.49,0c-6.89,0-13.46,1.32-19.51,3.9-5.97,2.47-11.21,6.01-16.01,10.8-4.45,4.25-8.06,9.55-11.05,16.23l-.03.07C1.31,37.25,0,43.81,0,50.49v179.41s179.42,0,179.42,0c6.69,0,13.24-1.31,19.5-3.9l.09-.04c6.65-2.98,11.95-6.59,16.19-11.03,4.8-4.8,8.34-10.04,10.81-16.01,2.59-6.06,3.9-12.62,3.9-19.52,0-12.93-4.27-24.22-12.69-33.59,8.42-9.22,12.69-20.53,12.69-33.64ZM101.18,50.49c0-4.43,1.73-8.49,4.99-11.76,2.91-2.91,7.45-4.79,11.56-4.79,4.11,0,8.64,1.88,11.56,4.79,3.08,3.09,4.78,7.26,4.78,11.76v45.34s45.34,0,45.34,0c4.5,0,8.67,1.7,11.76,4.78,2.91,2.91,4.79,7.45,4.79,11.56,0,4.11-1.88,8.65-4.78,11.56-3.27,3.26-7.33,4.99-11.76,4.99h-78.24s0-78.23,0-78.23ZM34.15,50.49c0-4.66,1.74-9.01,4.65-11.63,3.52-3.17,7.67-4.92,11.69-4.92,4.3,0,8.81,1.84,11.76,4.79,3.12,3.12,4.99,7.52,4.99,11.76v112.18s112.18,0,112.18,0c4.24,0,8.64,1.87,11.76,4.99,2.96,2.95,4.79,7.46,4.79,11.76,0,5.15-2.67,9.2-4.92,11.7-2.62,2.91-6.96,4.65-11.63,4.65H34.15s0-145.27,0-145.27ZM222.73,179.41c0,5.92-1.12,11.54-3.33,16.71l-.03.06c-2.1,5.08-5.13,9.56-9.27,13.7l-.09.09c-3.59,3.76-8.14,6.84-13.89,9.42-5.36,2.21-10.99,3.34-16.71,3.34H8.34s19.81-19.81,19.81-19.81h151.27c6.66,0,13-2.62,16.96-7.02,3.08-3.42,6.76-9.07,6.76-16.49,0-6.22-2.57-12.51-6.89-16.83-4.43-4.44-10.72-7.09-16.83-7.09h-103.84s19.6-19.61,19.6-19.61h84.24c6.37,0,12.19-2.45,16.83-7.09,4.25-4.25,6.89-10.62,6.89-16.63,0-6.01-2.64-12.38-6.89-16.63-4.44-4.44-10.41-6.89-16.83-6.89h-37s19.81-19.81,19.81-19.81h17.2c4.44,0,8.72.63,12.73,1.87,6.62,2.05,12.82,5.84,17.95,10.97,4.14,4.14,7.17,8.63,9.29,13.73l.03.06c2.21,5.15,3.32,10.77,3.32,16.69,0,11.49-3.79,21.35-11.26,29.29l-4.06,4.3,4.02,4.35c7.5,8.11,11.3,17.96,11.3,29.29Z"/>
</svg>